<?xml version="1.0" encoding="iso-8859-1"?>
<!-- Generator: Adobe Illustrator 19.0.0, SVG Export Plug-In . SVG Version: 6.00 Build 0)  -->
<svg version="1.1" id="Capa_1" xmlns="http://www.w3.org/2000/svg" xmlns:xlink="http://www.w3.org/1999/xlink" x="0px" y="0px"
	 viewBox="0 0 469.333 469.333" style="enable-background:new 0 0 469.333 469.333;" xml:space="preserve">
<g>
	<g>
		<g>
			<path d="M469.333,128V42.667C469.333,19.135,450.198,0,426.667,0h-384C19.135,0,0,19.135,0,42.667V128
				c0,12.805,5.784,24.175,14.741,32C5.784,167.826,0,179.195,0,192v85.333c0,12.805,5.784,24.174,14.741,32
				C5.784,317.159,0,328.529,0,341.333v85.333c0,23.531,19.135,42.667,42.667,42.667h384c23.531,0,42.667-19.135,42.667-42.667
				v-85.333c0-12.805-5.784-24.174-14.741-32c8.957-7.826,14.741-19.195,14.741-32V192c0-12.805-5.784-24.174-14.741-32
				C463.549,152.174,469.333,140.805,469.333,128z M448,426.667c0,11.76-9.573,21.333-21.333,21.333h-384
				c-11.76,0-21.333-9.573-21.333-21.333v-85.333c0-11.76,9.573-21.333,21.333-21.333h384c11.76,0,21.333,9.573,21.333,21.333
				V426.667z M448,277.333c0,11.76-9.573,21.333-21.333,21.333h-384c-11.76,0-21.333-9.573-21.333-21.333V192
				c0-11.76,9.573-21.333,21.333-21.333h384c11.76,0,21.333,9.573,21.333,21.333V277.333z M448,128
				c0,11.76-9.573,21.333-21.333,21.333h-384c-11.76,0-21.333-9.573-21.333-21.333V42.667c0-11.76,9.573-21.333,21.333-21.333h384
				c11.76,0,21.333,9.573,21.333,21.333V128z"/>
			<path d="M74.667,42.667C68.771,42.667,64,47.437,64,53.333v64C64,123.229,68.771,128,74.667,128s10.667-4.771,10.667-10.667v-64
				C85.333,47.437,80.562,42.667,74.667,42.667z"/>
			<path d="M117.333,42.667c-5.896,0-10.667,4.771-10.667,10.667v64c0,5.896,4.771,10.667,10.667,10.667
				c5.896,0,10.667-4.771,10.667-10.667v-64C128,47.437,123.229,42.667,117.333,42.667z"/>
			<path d="M160,42.667c-5.896,0-10.667,4.771-10.667,10.667v64c0,5.896,4.771,10.667,10.667,10.667
				c5.896,0,10.667-4.771,10.667-10.667v-64C170.667,47.437,165.896,42.667,160,42.667z"/>
			<circle cx="384" cy="85.333" r="21.333"/>
			<circle cx="320" cy="85.333" r="21.333"/>
			<path d="M74.667,192C68.771,192,64,196.771,64,202.667v64c0,5.896,4.771,10.667,10.667,10.667s10.667-4.771,10.667-10.667v-64
				C85.333,196.771,80.562,192,74.667,192z"/>
			<path d="M117.333,192c-5.896,0-10.667,4.771-10.667,10.667v64c0,5.896,4.771,10.667,10.667,10.667
				c5.896,0,10.667-4.771,10.667-10.667v-64C128,196.771,123.229,192,117.333,192z"/>
			<path d="M160,192c-5.896,0-10.667,4.771-10.667,10.667v64c0,5.896,4.771,10.667,10.667,10.667
				c5.896,0,10.667-4.771,10.667-10.667v-64C170.667,196.771,165.896,192,160,192z"/>
			<circle cx="384" cy="234.667" r="21.333"/>
			<circle cx="320" cy="234.667" r="21.333"/>
			<path d="M74.667,341.333C68.771,341.333,64,346.104,64,352v64c0,5.896,4.771,10.667,10.667,10.667S85.333,421.896,85.333,416v-64
				C85.333,346.104,80.562,341.333,74.667,341.333z"/>
			<path d="M117.333,341.333c-5.896,0-10.667,4.771-10.667,10.667v64c0,5.896,4.771,10.667,10.667,10.667
				c5.896,0,10.667-4.771,10.667-10.667v-64C128,346.104,123.229,341.333,117.333,341.333z"/>
			<path d="M160,341.333c-5.896,0-10.667,4.771-10.667,10.667v64c0,5.896,4.771,10.667,10.667,10.667
				c5.896,0,10.667-4.771,10.667-10.667v-64C170.667,346.104,165.896,341.333,160,341.333z"/>
			<circle cx="384" cy="384" r="21.333"/>
			<circle cx="320" cy="384" r="21.333"/>
		</g>
	</g>
</g>
<g>
</g>
<g>
</g>
<g>
</g>
<g>
</g>
<g>
</g>
<g>
</g>
<g>
</g>
<g>
</g>
<g>
</g>
<g>
</g>
<g>
</g>
<g>
</g>
<g>
</g>
<g>
</g>
<g>
</g>
</svg>
