<?xml version="1.0" encoding="iso-8859-1"?>
<!-- Generator: Adobe Illustrator 19.0.0, SVG Export Plug-In . SVG Version: 6.00 Build 0)  -->
<svg version="1.1" id="Capa_1" xmlns="http://www.w3.org/2000/svg" xmlns:xlink="http://www.w3.org/1999/xlink" x="0px" y="0px"
	 viewBox="0 0 512 512" style="enable-background:new 0 0 512 512;" xml:space="preserve">
<rect style="fill:#89A6FF;" width="512" height="512"/>
<rect y="277.3" style="fill:#5D84FF;" width="512" height="234.67"/>
<rect y="341.3" style="fill:#3162FF;" width="512" height="170.67"/>
<path style="fill:#556592;" d="M149.3,256c-0.7,0-1.2,0.3-1.8,0.4c-5.744-16.655-23.902-25.501-40.557-19.757
	S81.442,260.545,87.186,277.2c4.432,12.851,16.521,21.482,30.114,21.5h32c11.791,0,21.35-9.559,21.35-21.35S161.091,256,149.3,256z"
	/>
<path style="fill:#3C4E76;" d="M426.7,213.3c-0.7,0-1.2,0.3-1.8,0.4c-5.744-16.655-23.902-25.501-40.557-19.757
	c-16.655,5.744-25.501,23.902-19.757,40.557c4.432,12.851,16.521,21.482,30.114,21.5h32c11.791,0,21.35-9.559,21.35-21.35
	C448.05,222.859,438.491,213.3,426.7,213.3z"/>
<polygon style="fill:#8392B6;" points="0,512 512,512 512,469.3 298.7,277.3 213.3,277.3 0,469.3 "/>
<polygon style="fill:#3C4E76;" points="512,512 512,469.3 298.7,277.3 256,277.3 256,512 "/>
<path style="fill:#FF6D26;" d="M149.3,341.3c0,11.791,9.559,21.35,21.35,21.35S192,353.091,192,341.3l0,0
	c0-11.791,9.559-21.35,21.35-21.35s21.35,9.559,21.35,21.35V384c0,11.791,9.559,21.35,21.35,21.35s21.35-9.559,21.35-21.35l0,0v-64
	c0-11.791,9.559-21.35,21.35-21.35s21.35,9.559,21.35,21.35v42.7c0,11.791,9.559,21.35,21.35,21.35s21.35-9.559,21.35-21.35v-27.8
	l-64-57.6h-85.5l-64,57.6L149.3,341.3L149.3,341.3z"/>
<path style="fill:#3C4E76;" d="M353.2,0H0v149.3h0.6c30.91,23.502,72.288,27.967,107.5,11.6c12.87,9.341,29.343,12.185,44.6,7.7
	c6.371,20.111,22.286,35.764,42.5,41.8c-7.591,15.715-1.005,34.608,14.71,42.199c1.102,0.532,2.234,1,3.39,1.401v23.3h85.3v-43.7
	c28.837,5.909,57.006-12.677,62.915-41.515c0.727-3.549,1.091-7.163,1.085-10.785c-0.028-11.573-3.858-22.816-10.9-32h0.3
	c17.673,0,32-14.327,32-32c0-0.4-0.1-0.8-0.1-1.2c26.277,15.884,59.186,15.922,85.5,0.1c12.901,7.644,27.605,11.716,42.6,11.8V0
	H353.2z"/>
<path style="fill:#292E51;" d="M256,0v277.3h42.7v-43.7c28.837,5.909,57.006-12.677,62.915-41.515
	c0.727-3.549,1.091-7.163,1.085-10.785c-0.028-11.573-3.858-22.816-10.9-32h0.2c17.673,0,32-14.327,32-32c0-0.4-0.1-0.8-0.1-1.2
	c26.277,15.884,59.186,15.922,85.5,0.1c12.901,7.644,27.605,11.716,42.6,11.8V0H256z"/>
<path style="fill:#F51E00;" d="M277.3,384v-64c0-11.791,9.559-21.35,21.35-21.35S320,308.209,320,320v42.7
	c0,11.791,9.559,21.35,21.35,21.35s21.35-9.559,21.35-21.35v-27.8l-64-57.6H256v128C267.764,405.3,277.3,395.764,277.3,384z"/>
<path style="fill:#FF6D26;" d="M106.7,384c11.764,0,21.3-9.536,21.3-21.3c-0.073-2.47-0.58-4.907-1.5-7.2l-29.1,26.2
	C100.28,383.176,103.464,383.964,106.7,384z"/>
<rect x="234.7" y="192" style="fill:#F51E00;" width="21.3" height="42.67"/>
<rect x="277.3" y="170.7" style="fill:#AF0A00;" width="21.3" height="42.67"/>
<rect x="170.7" y="128" style="fill:#FF6D26;" width="21.3" height="42.67"/>
<g>
	<rect x="149.3" y="106.7" style="fill:#FFE500;" width="21.3" height="21.33"/>
	<rect x="234.7" y="85.3" style="fill:#FFE500;" width="21.3" height="21.33"/>
</g>
<rect x="298.7" y="128" style="fill:#F19D00;" width="21.3" height="21.33"/>
<rect x="320" y="149.3" style="fill:#AF0A00;" width="21.3" height="21.33"/>
<rect x="213.3" y="277.3" style="fill:#FFE500;" width="42.7" height="21.33"/>
<g>
</g>
<g>
</g>
<g>
</g>
<g>
</g>
<g>
</g>
<g>
</g>
<g>
</g>
<g>
</g>
<g>
</g>
<g>
</g>
<g>
</g>
<g>
</g>
<g>
</g>
<g>
</g>
<g>
</g>
</svg>
